0
SECTION
2
HEADER
9
$INSUNITS
70
4
9
$ACADVER
1
AC1014
9
$HANDSEED
5
FFFF
0
ENDSEC
0
SECTION
2
TABLES
0
TABLE
2
VPORT
5
8
100
AcDbSymbolTable
0
ENDTAB
0
TABLE
2
LTYPE
5
5
100
AcDbSymbolTable
0
LTYPE
5
14
100
AcDbSymbolTableRecord
100
AcDbLinetypeTableRecord
2
BYBLOCK
70
0
0
LTYPE
5
15
100
AcDbSymbolTableRecord
100
AcDbLinetypeTableRecord
2
BYLAYER
70
0
0
ENDTAB
0
TABLE
2
LAYER
5
2
100
AcDbSymbolTable
70
2
0
LAYER
5
50
100
AcDbSymbolTableRecord
100
AcDbLayerTableRecord
2
0
70
0
6
CONTINUOUS
0
ENDTAB
0
TABLE
2
STYLE
5
3
100
AcDbSymbolTable
70
1
0
STYLE
5
11
100
AcDbSymbolTableRecord
100
AcDbTextStyleTableRecord
2
STANDARD
70
0
0
ENDTAB
0
TABLE
2
VIEW
5
6
100
AcDbSymbolTable
70
0
0
ENDTAB
0
TABLE
2
UCS
5
7
100
AcDbSymbolTable
70
0
0
ENDTAB
0
TABLE
2
APPID
5
9
100
AcDbSymbolTable
70
2
0
APPID
5
12
100
AcDbSymbolTableRecord
100
AcDbRegAppTableRecord
2
ACAD
70
0
0
ENDTAB
0
TABLE
2
DIMSTYLE
5
A
100
AcDbSymbolTable
70
1
0
ENDTAB
0
TABLE
2
BLOCK_RECORD
5
1
100
AcDbSymbolTable
70
1
0
BLOCK_RECORD
5
1F
100
AcDbSymbolTableRecord
100
AcDbBlockTableRecord
2
*MODEL_SPACE
0
BLOCK_RECORD
5
1B
100
AcDbSymbolTableRecord
100
AcDbBlockTableRecord
2
*PAPER_SPACE
0
ENDTAB
0
ENDSEC
0
SECTION
2
BLOCKS
0
BLOCK
5
20
100
AcDbEntity
100
AcDbBlockBegin
2
*MODEL_SPACE
0
ENDBLK
5
21
100
AcDbEntity
100
AcDbBlockEnd
0
BLOCK
5
1C
100
AcDbEntity
100
AcDbBlockBegin
2
*PAPER_SPACE
0
ENDBLK
5
1D
100
AcDbEntity
100
AcDbBlockEnd
0
ENDSEC
0
SECTION
2
ENTITIES
0
LWPOLYLINE
5
100
100
AcDbEntity
8
0
100
AcDbPolyline
90
4
70
1
43
0.0
10
2.1849999999999996
20
1.9749999999999999
42
-0.3782150388695697
10
2.1850000000000005
20
-1.9749999999999996
10
-2.1849999999999996
20
-1.975000000000001
42
-0.37821503886956992
10
-2.1850000000000005
20
1.9750000000000003
0
LINE
5
101
100
AcDbEntity
8
0
100
AcDbLine
10
-13.983157408213522
20
5.5052863095079063
30
0
11
-10.178931343032902
21
4.2692183320081414
31
0
0
ARC
5
102
100
AcDbEntity
8
0
100
AcDbCircle
10
-10.461621679246708
20
3.3991869381243509
30
0
40
0.91480514457016826
210
0
220
0
230
1
100
AcDbArc
50
-107.99999999999969
51
72.000000000000441
0
LINE
5
103
100
AcDbEntity
8
0
100
AcDbLine
10
-10.744312015460515
20
2.5291555442405604
30
0
11
-14.548538080641137
21
3.7652235217403267
31
0
0
ARC
5
104
100
AcDbEntity
8
0
100
AcDbCircle
10
-14.265847744427331
20
4.6352549156241167
30
0
40
0.91480514457016859
210
0
220
-0
230
1
100
AcDbArc
50
72.000000000000213
51
252.0000000000004
0
LWPOLYLINE
5
105
100
AcDbEntity
8
0
100
AcDbPolyline
90
4
70
1
43
0.0
10
-11.000000000000005
20
0.91480514457009099
10
-15.000000000000007
20
0.91480514457006379
42
0.99999999999999989
10
-14.999999999999993
20
-0.91480514457027184
10
-10.999999999999993
20
-0.91480514457024442
42
0.99999999999999989
0
LWPOLYLINE
5
106
100
AcDbEntity
8
0
100
AcDbPolyline
90
4
70
1
43
0.0
10
-10.744312015460487
20
-2.5291555442407336
10
-14.5485380806411
20
-3.7652235217405225
42
0.99999999999999989
10
-13.983157408213447
20
-5.5052863095081062
10
-10.178931343032847
20
-4.2692183320082835
42
0.99999999999999989
0
LWPOLYLINE
5
107
100
AcDbEntity
8
0
100
AcDbPolyline
90
4
70
1
43
0.0
10
-9.4368959108240205
20
-5.7255448667184012
10
-12.672963888323814
20
-8.0766858758882911
42
0.99999999999999989
10
-11.597545942924491
20
-9.5568716928860837
10
-8.3614779654247293
20
-7.2057306837161752
42
0.99999999999999989
0
LWPOLYLINE
5
108
100
AcDbEntity
8
0
100
AcDbPolyline
90
4
70
1
43
0.0
10
-7.2057306837160597
20
-8.361477965424875
10
-9.5568716928859505
20
-11.597545942924665
42
0.99999999999999989
10
-8.0766858758880904
20
-12.672963888323936
10
-5.725544866718205
20
-9.4368959108241128
42
0.99999999999999989
0
LWPOLYLINE
5
109
100
AcDbEntity
8
0
100
AcDbPolyline
90
4
70
1
43
0.0
10
-4.2692183320081618
20
-10.178931343032945
10
-5.5052863095079507
20
-13.983157408213561
42
0.99999999999999989
10
-3.7652235217402872
20
-14.54853808064116
10
-2.5291555442405116
20
-10.744312015460526
42
0.99999999999999989
0
LWPOLYLINE
5
110
100
AcDbEntity
8
0
100
AcDbPolyline
90
4
70
1
43
0.0
10
-0.91480514457005246
20
-11.000000000000007
10
-0.91480514457001139
20
-15.000000000000009
42
0.99999999999999989
10
0.91480514457032414
20
-14.999999999999986
10
0.91480514457028295
20
-10.999999999999988
42
0.99999999999999989
0
LWPOLYLINE
5
111
100
AcDbEntity
8
0
100
AcDbPolyline
90
4
70
1
43
0.0
10
2.5291555442406812
20
-10.744312015460537
10
3.7652235217404701
20
-14.548538080641153
42
0.99999999999999989
10
5.5052863095081523
20
-13.983157408213408
10
4.2692183320083714
20
-10.178931343032819
42
0.99999999999999989
0
LWPOLYLINE
5
112
100
AcDbEntity
8
0
100
AcDbPolyline
90
4
70
1
43
0.0
10
-5.7255448667183542
20
9.4368959108240187
10
-8.0766858758882609
20
12.672963888323796
42
0.99999999999999989
10
-9.5568716928860482
20
11.597545942924532
10
-7.2057306837161406
20
8.3614779654247524
42
0.99999999999999989
0
LINE
5
113
100
AcDbEntity
8
0
100
AcDbLine
10
-11.597545942924636
20
9.5568716928859292
30
0
11
-8.3614779654248359
21
7.2057306837160535
31
0
0
ARC
5
114
100
AcDbEntity
8
0
100
AcDbCircle
10
-8.8991869381244584
20
6.4656377752171545
30
0
40
0.91480514457016793
210
0
220
0
230
1
100
AcDbArc
50
-125.99999999999953
51
54.000000000000405
0
LINE
5
115
100
AcDbEntity
8
0
100
AcDbLine
10
-9.4368959108240809
20
5.7255448667182538
30
0
11
-12.672963888323887
21
8.0766858758881295
31
0
0
ARC
5
116
100
AcDbEntity
8
0
100
AcDbCircle
10
-12.135254915624262
20
8.8167787843870276
30
0
40
0.91480514457017004
210
0
220
-0
230
1
100
AcDbArc
50
54.000000000000306
51
234.00000000000026
0
LINE
5
117
100
AcDbEntity
8
0
100
AcDbLine
10
-3.765223521740487
20
14.5485380806411
30
0
11
-2.5291555442406817
21
10.744312015460491
31
0
0
ARC
5
118
100
AcDbEntity
8
0
100
AcDbCircle
10
-3.3991869381244681
20
10.461621679246676
30
0
40
0.91480514457016793
210
0
220
0
230
1
100
AcDbArc
50
-161.9999999999998
51
18.000000000000153
0
LINE
5
119
100
AcDbEntity
8
0
100
AcDbLine
10
-4.269218332008256
20
10.178931343032859
30
0
11
-5.5052863095080617
21
13.983157408213469
31
0
0
ARC
5
120
100
AcDbEntity
8
0
100
AcDbCircle
10
-4.6352549156242748
20
14.265847744427285
30
0
40
0.91480514457016793
210
0
220
-0
230
1
100
AcDbArc
50
18.000000000000153
51
198.00000000000026
0
LWPOLYLINE
5
121
100
AcDbEntity
8
0
100
AcDbPolyline
90
4
70
1
43
0.0
10
0.9148051445701294
20
11.000000000000004
10
0.91480514457011619
20
15.000000000000002
42
0.99999999999999989
10
-0.91480514457021933
20
14.999999999999996
10
-0.91480514457020612
20
10.999999999999996
42
0.99999999999999989
0
LWPOLYLINE
5
122
100
AcDbEntity
8
0
100
AcDbPolyline
90
4
70
1
43
0.0
10
10.744312015460498
20
2.5291555442406413
10
14.548538080641116
20
3.7652235217404333
42
0.99999999999999989
10
13.98315740821349
20
5.5052863095080093
10
10.178931343032874
20
4.2692183320082169
42
0.99999999999999989
0
LINE
5
123
100
AcDbEntity
8
0
100
AcDbLine
10
12.672963888323833
20
8.0766858758882201
30
0
11
9.4368959108240453
21
5.7255448667183213
31
0
0
ARC
5
124
100
AcDbEntity
8
0
100
AcDbCircle
10
8.8991869381244175
20
6.4656377752172176
30
0
40
0.91480514457016771
210
0
220
0
230
1
100
AcDbArc
50
126.00000000000009
51
305.99999999999994
0
LINE
5
125
100
AcDbEntity
8
0
100
AcDbLine
10
8.3614779654247879
20
7.2057306837161139
30
0
11
11.597545942924574
21
9.5568716928860127
31
0
0
ARC
5
126
100
AcDbEntity
8
0
100
AcDbCircle
10
12.135254915624202
20
8.8167787843871146
30
0
40
0.91480514457016815
210
0
220
0
230
1
100
AcDbArc
50
-53.999999999999801
51
125.99999999999991
0
LWPOLYLINE
5
127
100
AcDbEntity
8
0
100
AcDbPolyline
90
4
70
1
43
0.0
10
7.2057306837160828
20
8.3614779654248075
10
9.5568716928859683
20
11.597545942924603
42
0.99999999999999989
10
8.0766858758881703
20
12.672963888323853
10
5.7255448667182849
20
9.4368959108240631
42
0.99999999999999989
0
LWPOLYLINE
5
128
100
AcDbEntity
8
0
100
AcDbPolyline
90
4
70
1
43
0.0
10
4.2692183320081813
20
10.17893134303289
10
5.5052863095079605
20
13.983157408213508
42
0.99999999999999989
10
3.7652235217403822
20
14.54853808064113
10
2.5291555442406044
20
10.744312015460512
42
0.99999999999999989
0
LWPOLYLINE
5
129
100
AcDbEntity
8
0
100
AcDbPolyline
90
4
70
1
43
0.0
10
8.3614779654248235
20
-7.205730683716113
10
11.597545942924611
20
-9.5568716928860056
42
0.99999999999999989
10
12.672963888323999
20
-8.0766858758880744
10
9.4368959108241608
20
-5.7255448667181277
42
0.99999999999999989
0
LWPOLYLINE
5
130
100
AcDbEntity
8
0
100
AcDbPolyline
90
4
70
1
43
0.0
10
5.7255448667183471
20
-9.4368959108240738
10
8.0766858758882361
20
-12.672963888323864
42
0.99999999999999989
10
9.5568716928860979
20
-11.597545942924414
10
7.2057306837162507
20
-8.3614779654246689
42
0.99999999999999989
0
LWPOLYLINE
5
131
100
AcDbEntity
8
0
100
AcDbPolyline
90
4
70
1
43
0.0
10
10.178931343032893
20
-4.2692183320082115
10
13.983157408213509
20
-5.5052863095080031
42
0.99999999999999989
10
14.548538080641194
20
-3.7652235217402428
10
10.744312015460558
20
-2.5291555442404254
42
0.99999999999999989
0
LWPOLYLINE
5
132
100
AcDbEntity
8
0
100
AcDbPolyline
90
4
70
1
43
0.0
10
10.999999999999998
20
-0.91480514457016771
10
15
20
-0.91480514457016859
42
0.99999999999999989
10
15
20
0.91480514457016704
10
10.999999999999998
20
0.91480514457016771
42
0.99999999999999989
0
CIRCLE
5
133
100
AcDbEntity
8
0
100
AcDbCircle
10
0
20
0
30
0
40
17
210
0
220
0
230
-1
0
ENDSEC
0
SECTION
2
OBJECTS
0
DICTIONARY
5
C
100
AcDbDictionary
3
ACAD_GROUP
350
D
3
ACAD_MLINESTYLE
350
17
0
DICTIONARY
5
D
100
AcDbDictionary
0
DICTIONARY
5
1A
330
C
100
AcDbDictionary
0
DICTIONARY
5
17
100
AcDbDictionary
0
ENDSEC
0
EOF
